<svg xmlns="http://www.w3.org/2000/svg" viewBox="0 0 24 24" aria-hidden="true"><g transform="translate(2.85 2.15)"><path d="M4.533,9.066a4.517,4.517,0,1,0-.032,0Z" transform="translate(2.539 0)" fill="none" stroke="#765f42" stroke-linecap="round" stroke-linejoin="round" stroke-miterlimit="10" stroke-width="1.5"/><path d="M7.072,7.3C3.258,7.3,0,6.721,0,4.411S3.237,0,7.072,0c3.814,0,7.072,2.081,7.072,4.39S10.907,7.3,7.072,7.3Z" transform="translate(0 12.36)" fill="none" stroke="#765f42" stroke-linecap="round" stroke-linejoin="round" stroke-miterlimit="10" stroke-width="1.5"/><path d="M0,5.2a5.2,5.2,0,0,1,10.4,0" transform="translate(10.2 7.8)" fill="none" stroke="#765f42" stroke-linecap="round" stroke-linejoin="round" stroke-miterlimit="10" stroke-width="1.5"/><path d="M0,2.2a2.2,2.2,0,1,0,4.4,0,2.2,2.2,0,1,0-4.4,0Z" transform="translate(13.2 15.2)" fill="none" stroke="#765f42" stroke-linecap="round" stroke-linejoin="round" stroke-miterlimit="10" stroke-width="1.5"/></g></svg>