<svg xmlns="http://www.w3.org/2000/svg" viewBox="0 0 24 24" aria-hidden="true"><g transform="translate(2.5 2.5)"><path d="M3.2,6.4a3.2,3.2,0,1,0-.02,0Z" transform="translate(1.2 0)" fill="none" stroke="#765f42" stroke-linecap="round" stroke-linejoin="round" stroke-miterlimit="10" stroke-width="1.5"/><path d="M5,5.2C2.3,5.2,0,4.3,0,2.6S2.3,0,5,0,10,1.8,10,3.5,7.7,5.2,5,5.2Z" transform="translate(0 13.8)" fill="none" stroke="#765f42" stroke-linecap="round" stroke-linejoin="round" stroke-miterlimit="10" stroke-width="1.5"/><path d="M3.2,6.4a3.2,3.2,0,1,0-.02,0Z" transform="translate(11.8 1.2)" fill="none" stroke="#765f42" stroke-linecap="round" stroke-linejoin="round" stroke-miterlimit="10" stroke-width="1.5"/><path d="M5,5.2C2.3,5.2,0,4.3,0,2.6S2.3,0,5,0,10,1.8,10,3.5,7.7,5.2,5,5.2Z" transform="translate(10.6 13.8)" fill="none" stroke="#765f42" stroke-linecap="round" stroke-linejoin="round" stroke-miterlimit="10" stroke-width="1.5"/><path d="M0,3.6a3.6,3.6,0,1,0,7.2,0,3.6,3.6,0,1,0-7.2,0Z" transform="translate(6.4 4.8)" fill="none" stroke="#765f42" stroke-linecap="round" stroke-linejoin="round" stroke-miterlimit="10" stroke-width="1.5"/><path d="M4.5,4.8C1.5,4.8,0,3.4,0,1.6S1.5,0,4.5,0,9,2.2,9,4,7.5,4.8,4.5,4.8Z" transform="translate(5.5 14.2)" fill="none" stroke="#765f42" stroke-linecap="round" stroke-linejoin="round" stroke-miterlimit="10" stroke-width="1.5"/></g></svg>